<?xml version="1.0" standalone="no"?>
<!DOCTYPE svg PUBLIC "-//W3C//DTD SVG 20010904//EN"
 "http://www.w3.org/TR/2001/REC-SVG-20010904/DTD/svg10.dtd">
<svg version="1.0" xmlns="http://www.w3.org/2000/svg"
 width="500.000000pt" height="500.000000pt" viewBox="0 0 500.000000 500.000000"
 preserveAspectRatio="xMidYMid meet">

<g transform="translate(0.000000,500.000000) scale(0.100000,-0.100000)"
fill="#000000" stroke="none">
<path d="M2380 4124 c-564 -65 -993 -328 -1270 -779 -39 -63 -110 -205 -110
-219 0 -3 29 -6 64 -6 62 0 64 1 76 33 45 111 167 284 288 406 333 336 803
498 1262 436 200 -27 339 -71 519 -165 241 -128 459 -337 597 -575 22 -38 46
-85 54 -102 12 -32 14 -33 76 -33 35 0 64 3 64 6 0 19 -98 203 -149 280 -292
436 -775 702 -1306 718 -71 2 -146 2 -165 0z"/>
<path d="M2310 3896 c-431 -63 -795 -305 -1020 -677 -27 -46 -50 -87 -50 -91
0 -5 8 -8 19 -8 13 0 32 23 62 73 281 475 833 743 1367 662 411 -61 761 -291
977 -640 39 -64 65 -95 77 -95 25 0 24 4 -24 84 -213 361 -568 611 -967 682
-124 21 -327 26 -441 10z"/>
<path d="M2185 3547 c-66 -26 -104 -58 -129 -109 -14 -29 -26 -60 -26 -69 0
-12 -11 -20 -32 -24 -56 -12 -105 -43 -127 -78 -28 -46 -29 -139 -1 -184 20
-34 85 -73 119 -73 33 0 44 -36 38 -118 -5 -66 -4 -73 11 -66 95 42 255 55
372 30 36 -8 67 -12 69 -10 6 6 -64 44 -104 56 -50 15 -207 15 -257 0 l-38
-10 0 34 c0 19 -5 55 -11 79 -10 41 -13 43 -53 49 -109 17 -157 100 -106 184
19 31 71 62 104 62 8 0 16 -14 20 -34 4 -19 15 -45 26 -58 19 -23 19 -23 4 21
-23 68 -3 157 50 214 39 42 102 67 171 67 116 0 195 -62 216 -170 l12 -60 45
0 c106 0 162 -39 169 -117 8 -88 -23 -127 -110 -139 l-48 -7 11 27 c5 15 10
39 10 54 0 24 -4 21 -30 -25 -19 -32 -46 -62 -72 -78 -40 -25 -41 -26 -13 -22
17 3 38 9 47 12 13 5 15 2 11 -14 -3 -12 -2 -42 2 -68 l8 -48 8 40 c19 88 14
82 77 87 100 7 152 65 152 168 0 74 -30 123 -94 155 -27 14 -67 25 -88 25 -36
0 -38 2 -49 43 -15 60 -57 117 -113 151 -42 26 -58 30 -134 33 -53 2 -99 -2
-117 -10z"/>
<path d="M2975 3008 c-81 -29 -124 -93 -125 -185 l0 -53 -40 0 c-29 0 -40 -4
-40 -15 0 -11 11 -15 40 -15 l40 0 0 -233 c0 -255 -10 -317 -55 -363 -40 -40
-105 -31 -131 17 -13 25 -18 28 -35 18 -28 -15 -22 -60 11 -76 31 -16 131 -17
183 -2 22 6 59 30 87 57 72 70 80 108 80 369 l0 213 25 0 c14 0 25 -4 25 -8 0
-4 12 -8 26 -7 39 0 82 -84 156 -309 l62 -188 -34 -29 c-84 -71 -154 -87 -188
-44 -32 41 -62 28 -62 -25 0 -30 36 -43 104 -38 83 6 129 30 207 108 119 120
194 318 187 495 -3 78 -4 80 -29 83 -37 4 -52 -17 -38 -58 17 -46 5 -192 -21
-267 -12 -35 -25 -63 -28 -63 -4 0 -22 48 -40 108 -19 59 -49 140 -68 179 -46
97 -63 106 -189 97 l-95 -7 0 70 c0 80 14 129 40 143 30 16 41 12 80 -30 35
-38 39 -40 54 -25 9 9 16 23 16 30 0 49 -124 81 -205 53z"/>
<path d="M1427 2979 c-88 -21 -168 -86 -182 -148 -21 -96 85 -172 150 -106 28
27 31 52 11 80 -12 16 -17 17 -44 6 -43 -18 -62 -8 -62 29 0 39 32 71 94 95
83 32 80 42 86 -306 3 -167 7 -305 8 -305 35 -22 81 -29 177 -27 140 2 199 18
203 56 4 32 -4 33 -78 7 -67 -24 -108 -25 -138 -4 -22 15 -22 17 -22 302 0
158 -4 292 -8 298 -22 33 -109 43 -195 23z"/>
<path d="M2051 2763 c-181 -66 -217 -339 -57 -437 84 -52 207 -35 275 38 31
33 21 45 -15 17 -58 -46 -155 -17 -194 58 -33 65 -29 70 80 133 111 64 139 95
124 135 -22 63 -123 89 -213 56z m81 -50 c11 -10 18 -30 18 -55 0 -35 -4 -41
-47 -68 -67 -42 -71 -40 -62 30 11 96 47 133 91 93z"/>
<path d="M2450 2769 c-51 -15 -90 -56 -90 -94 0 -58 63 -87 94 -43 17 24 6 58
-19 58 -22 0 -18 28 5 40 36 19 91 8 113 -22 17 -22 18 -33 11 -60 -10 -34
-13 -36 -138 -95 -76 -36 -100 -68 -100 -133 0 -61 25 -99 78 -119 45 -17 99
-4 140 34 l27 25 11 -25 c13 -30 59 -49 95 -40 38 9 83 43 83 63 0 12 -3 13
-12 4 -33 -33 -38 -15 -38 146 0 181 -9 212 -75 246 -45 23 -134 30 -185 15z
m116 -234 c4 -14 4 -50 2 -80 -7 -84 -57 -123 -92 -73 -30 42 -12 156 26 171
33 14 58 7 64 -18z"/>
<path d="M3977 2242 c-10 -10 -17 -35 -17 -55 0 -62 -35 -138 -87 -189 -120
-117 -291 -153 -718 -150 -223 2 -458 19 -960 71 -421 44 -890 52 -1120 21
-158 -22 -334 -78 -425 -135 -64 -40 -36 -51 41 -16 145 65 297 96 564 112
244 15 520 2 1055 -51 531 -52 664 -61 962 -62 323 -1 432 14 562 79 109 55
202 180 213 288 9 83 -30 131 -70 87z"/>
<path d="M1540 2193 c-41 -15 -52 -69 -21 -97 22 -20 72 -18 79 2 3 11 0 12
-17 3 -40 -22 -82 20 -60 61 8 15 18 19 45 16 35 -4 46 5 18 16 -18 7 -23 7
-44 -1z"/>
<path d="M1821 2188 c0 -10 -7 -18 -13 -18 -10 0 -10 -2 -1 -8 6 -4 13 -23 15
-42 2 -26 8 -36 23 -38 18 -2 18 -2 3 8 -11 6 -18 23 -18 40 0 19 6 30 18 33
15 4 15 5 0 6 -9 0 -19 9 -21 19 -4 16 -5 16 -6 0z"/>
<path d="M1669 2149 c-8 -16 -8 -28 0 -46 9 -19 17 -23 46 -21 34 2 35 3 35
43 0 40 -1 41 -34 43 -27 2 -38 -2 -47 -19z m69 -21 c2 -20 -2 -28 -19 -33
-30 -10 -53 19 -38 47 15 29 53 20 57 -14z"/>
<path d="M1918 2144 c-8 -18 -9 -30 -1 -42 12 -20 51 -28 66 -13 7 7 2 10 -18
8 -15 -1 -30 4 -32 11 -3 8 7 12 31 12 39 0 41 2 26 31 -16 29 -58 25 -72 -7z
m60 -1 c2 -8 -6 -13 -22 -13 -25 0 -33 10 -19 24 10 10 36 3 41 -11z"/>
<path d="M2062 2120 c1 -36 2 -39 5 -13 3 19 14 39 26 48 22 15 22 15 -6 13
-25 -2 -27 -5 -25 -48z"/>
<path d="M2173 2125 c0 -27 2 -38 4 -22 2 15 2 37 0 50 -2 12 -4 0 -4 -28z"/>
<path d="M2240 2126 c0 -55 17 -62 22 -8 2 29 7 37 23 37 16 0 21 -9 26 -40
l7 -40 -2 45 c-1 44 -1 45 -38 48 l-38 3 0 -45z"/>
<path d="M2390 2155 c-21 -25 -4 -65 31 -72 33 -6 28 -19 -11 -26 -22 -4 -22
-4 6 -6 41 -2 54 15 54 71 0 48 0 48 -34 48 -18 0 -39 -7 -46 -15z m68 -24 c6
-37 -26 -52 -52 -25 -12 12 -13 20 -5 35 15 28 53 21 57 -10z"/>
<path d="M4101 2121 c-6 -11 -11 -30 -11 -43 0 -79 -117 -223 -211 -261 -41
-16 -42 -17 -10 -12 102 16 213 105 263 212 34 72 34 116 1 121 -14 2 -26 -4
-32 -17z"/>
<path d="M3334 2116 c-17 -8 -38 -24 -47 -36 -8 -12 -49 -37 -90 -55 -107 -46
-173 -103 -149 -127 7 -7 28 3 69 35 96 75 149 96 219 90 50 -4 63 -2 87 17
38 30 36 65 -4 79 -40 14 -47 13 -85 -3z m67 -56 c-13 -11 -35 -20 -50 -19
-23 1 -22 2 9 11 19 5 39 14 45 19 5 5 11 9 15 9 3 -1 -6 -10 -19 -20z"/>
<path d="M3492 2093 c2 -10 10 -18 18 -18 8 0 16 8 18 18 2 12 -3 17 -18 17
-15 0 -20 -5 -18 -17z"/>
<path d="M3598 2051 c-31 -10 -72 -28 -91 -40 -19 -11 -49 -21 -67 -21 -33 0
-130 -46 -130 -62 0 -11 17 -10 24 1 3 5 16 11 28 14 l23 6 -21 -17 c-12 -9
-30 -22 -40 -28 -11 -7 -16 -15 -13 -18 4 -4 22 2 40 13 45 28 63 27 20 -1
-19 -12 -29 -24 -23 -26 18 -6 89 36 111 66 22 31 131 73 224 86 50 8 64 29
25 40 -33 8 -47 7 -110 -13z"/>
<path d="M1130 2050 c-107 -15 -240 -49 -330 -85 -99 -39 -88 -45 20 -11 110
35 246 56 412 63 136 6 181 13 167 28 -11 10 -203 14 -269 5z"/>
<path d="M3260 1975 c0 -9 5 -15 11 -13 6 2 11 8 11 13 0 5 -5 11 -11 13 -6 2
-11 -4 -11 -13z"/>
<path d="M1061 1738 c209 -391 588 -694 1009 -807 214 -57 494 -72 686 -37
490 88 884 352 1133 759 71 117 72 107 -7 107 l-68 0 -24 -42 c-56 -102 -186
-255 -295 -350 -208 -181 -464 -305 -735 -354 -130 -24 -390 -24 -520 -1 -118
22 -302 83 -410 136 -239 117 -505 361 -620 569 l-24 42 -68 0 c-68 0 -69 0
-57 -22z"/>
<path d="M1340 1703 c224 -316 544 -523 910 -589 128 -23 372 -23 500 0 272
49 536 186 736 382 78 77 204 235 204 255 0 5 -8 9 -17 9 -11 0 -46 -37 -87
-90 -331 -436 -905 -631 -1443 -489 -282 74 -563 263 -734 494 -48 65 -69 85
-87 85 -22 0 -22 -2 18 -57z"/>
<path d="M2474 1706 c-16 -38 -24 -46 -54 -51 -76 -13 -76 -13 -35 -55 36 -37
36 -38 27 -89 -11 -58 -7 -60 48 -29 l39 23 47 -23 c25 -13 48 -22 49 -20 2 2
-1 25 -6 53 -9 48 -8 50 26 85 19 20 35 39 35 43 0 4 -13 7 -29 7 -50 0 -76
16 -96 59 -10 23 -21 41 -26 41 -4 0 -15 -20 -25 -44z"/>
<path d="M2149 1581 c-10 -33 -17 -40 -52 -51 l-41 -12 32 -27 c27 -22 32 -33
32 -70 l0 -43 35 27 c36 26 36 27 77 10 38 -15 40 -15 34 2 -19 48 -18 72 4
100 l22 28 -41 3 c-33 3 -44 9 -61 38 -12 18 -23 34 -25 34 -2 0 -9 -17 -16
-39z"/>
<path d="M2811 1584 c-20 -29 -29 -34 -63 -34 l-39 0 21 -31 c22 -29 23 -55 5
-101 -7 -17 -4 -17 35 -3 42 15 44 14 76 -10 l34 -26 0 44 c0 37 5 47 32 67
l32 24 -41 17 c-32 13 -43 24 -48 48 -9 43 -17 44 -44 5z"/>
</g>
</svg>
